<svg width="185" height="32" viewBox="0 0 185 32" fill="none" xmlns="http://www.w3.org/2000/svg">
<path d="M0.48 19.88C0.48 17.6667 0.933333 15.7067 1.84 14C2.77333 12.2933 4.02667 10.9733 5.6 10.04C7.2 9.08 8.96 8.6 10.88 8.6C12.6133 8.6 14.12 8.94667 15.4 9.64C16.7067 10.3067 17.7467 11.1467 18.52 12.16V8.96H23.12V31H18.52V27.72C17.7467 28.76 16.6933 29.6267 15.36 30.32C14.0267 31.0133 12.5067 31.36 10.8 31.36C8.90667 31.36 7.17333 30.88 5.6 29.92C4.02667 28.9333 2.77333 27.5733 1.84 25.84C0.933333 24.08 0.48 22.0933 0.48 19.88ZM18.52 19.96C18.52 18.44 18.2 17.12 17.56 16C16.9467 14.88 16.1333 14.0267 15.12 13.44C14.1067 12.8533 13.0133 12.56 11.84 12.56C10.6667 12.56 9.57333 12.8533 8.56 13.44C7.54667 14 6.72 14.84 6.08 15.96C5.46667 17.0533 5.16 18.36 5.16 19.88C5.16 21.4 5.46667 22.7333 6.08 23.88C6.72 25.0267 7.54667 25.9067 8.56 26.52C9.6 27.1067 10.6933 27.4 11.84 27.4C13.0133 27.4 14.1067 27.1067 15.12 26.52C16.1333 25.9333 16.9467 25.08 17.56 23.96C18.2 22.8133 18.52 21.48 18.52 19.96ZM48.6694 8.96V31H44.1094V28.4C43.3894 29.3067 42.4427 30.0267 41.2694 30.56C40.1227 31.0667 38.896 31.32 37.5894 31.32C35.856 31.32 34.296 30.96 32.9094 30.24C31.5494 29.52 30.4694 28.4533 29.6694 27.04C28.896 25.6267 28.5094 23.92 28.5094 21.92V8.96H33.0294V21.24C33.0294 23.2133 33.5227 24.7333 34.5094 25.8C35.496 26.84 36.8427 27.36 38.5494 27.36C40.256 27.36 41.6027 26.84 42.5894 25.8C43.6027 24.7333 44.1094 23.2133 44.1094 21.24V8.96H48.6694ZM59.6059 12.68V24.88C59.6059 25.7067 59.7926 26.3067 60.1659 26.68C60.5659 27.0267 61.2326 27.2 62.1659 27.2H64.9659V31H61.3659C59.3126 31 57.7393 30.52 56.6459 29.56C55.5526 28.6 55.0059 27.04 55.0059 24.88V12.68H52.4059V8.96H55.0059V3.48H59.6059V8.96H64.9659V12.68H59.6059ZM78.3288 31.36C76.2488 31.36 74.3688 30.8933 72.6888 29.96C71.0088 29 69.6888 27.6667 68.7288 25.96C67.7688 24.2267 67.2888 22.2267 67.2888 19.96C67.2888 17.72 67.7821 15.7333 68.7688 14C69.7554 12.2667 71.1021 10.9333 72.8088 10C74.5154 9.06667 76.4221 8.6 78.5288 8.6C80.6354 8.6 82.5421 9.06667 84.2488 10C85.9554 10.9333 87.3021 12.2667 88.2888 14C89.2754 15.7333 89.7688 17.72 89.7688 19.96C89.7688 22.2 89.2621 24.1867 88.2488 25.92C87.2354 27.6533 85.8488 29 84.0888 29.96C82.3554 30.8933 80.4354 31.36 78.3288 31.36ZM78.3288 27.4C79.5021 27.4 80.5954 27.12 81.6088 26.56C82.6488 26 83.4888 25.16 84.1288 24.04C84.7688 22.92 85.0888 21.56 85.0888 19.96C85.0888 18.36 84.7821 17.0133 84.1688 15.92C83.5554 14.8 82.7421 13.96 81.7288 13.4C80.7154 12.84 79.6221 12.56 78.4488 12.56C77.2754 12.56 76.1821 12.84 75.1688 13.4C74.1821 13.96 73.3954 14.8 72.8088 15.92C72.2221 17.0133 71.9288 18.36 71.9288 19.96C71.9288 22.3333 72.5288 24.1733 73.7288 25.48C74.9554 26.76 76.4888 27.4 78.3288 27.4ZM103.117 12.68H99.0366V31H94.4366V12.68H91.8366V8.96H94.4366V7.4C94.4366 4.86666 95.1032 3.02666 96.4366 1.88C97.7966 0.706666 99.9166 0.119999 102.797 0.119999V3.92C101.41 3.92 100.437 4.18667 99.8766 4.72C99.3166 5.22667 99.0366 6.12 99.0366 7.4V8.96H103.117V12.68ZM105.238 19.88C105.238 17.6667 105.691 15.7067 106.598 14C107.531 12.2933 108.784 10.9733 110.358 10.04C111.958 9.08 113.718 8.6 115.638 8.6C117.371 8.6 118.878 8.94667 120.158 9.64C121.464 10.3067 122.504 11.1467 123.278 12.16V8.96H127.878V31H123.278V27.72C122.504 28.76 121.451 29.6267 120.118 30.32C118.784 31.0133 117.264 31.36 115.558 31.36C113.664 31.36 111.931 30.88 110.358 29.92C108.784 28.9333 107.531 27.5733 106.598 25.84C105.691 24.08 105.238 22.0933 105.238 19.88ZM123.278 19.96C123.278 18.44 122.958 17.12 122.318 16C121.704 14.88 120.891 14.0267 119.878 13.44C118.864 12.8533 117.771 12.56 116.598 12.56C115.424 12.56 114.331 12.8533 113.318 13.44C112.304 14 111.478 14.84 110.838 15.96C110.224 17.0533 109.918 18.36 109.918 19.88C109.918 21.4 110.224 22.7333 110.838 23.88C111.478 25.0267 112.304 25.9067 113.318 26.52C114.358 27.1067 115.451 27.4 116.598 27.4C117.771 27.4 118.864 27.1067 119.878 26.52C120.891 25.9333 121.704 25.08 122.318 23.96C122.958 22.8133 123.278 21.48 123.278 19.96ZM138.027 12.16C138.694 11.04 139.574 10.1733 140.667 9.56C141.787 8.92 143.107 8.6 144.627 8.6V13.32H143.467C141.681 13.32 140.321 13.7733 139.387 14.68C138.481 15.5867 138.027 17.16 138.027 19.4V31H133.467V8.96H138.027V12.16ZM175.099 8.6C176.832 8.6 178.379 8.96 179.739 9.68C181.125 10.4 182.205 11.4667 182.979 12.88C183.779 14.2933 184.179 16 184.179 18V31H179.659V18.68C179.659 16.7067 179.165 15.2 178.179 14.16C177.192 13.0933 175.845 12.56 174.139 12.56C172.432 12.56 171.072 13.0933 170.059 14.16C169.072 15.2 168.579 16.7067 168.579 18.68V31H164.059V18.68C164.059 16.7067 163.565 15.2 162.579 14.16C161.592 13.0933 160.245 12.56 158.539 12.56C156.832 12.56 155.472 13.0933 154.459 14.16C153.472 15.2 152.979 16.7067 152.979 18.68V31H148.419V8.96H152.979V11.48C153.725 10.5733 154.672 9.86667 155.819 9.36C156.965 8.85333 158.192 8.6 159.499 8.6C161.259 8.6 162.832 8.97333 164.219 9.72C165.605 10.4667 166.672 11.5467 167.419 12.96C168.085 11.6267 169.125 10.5733 170.539 9.8C171.952 9 173.472 8.6 175.099 8.6Z" fill="white"/>
</svg>
