<svg width="136" height="38" viewBox="0 0 136 38" fill="none" xmlns="http://www.w3.org/2000/svg">
<path d="M38 19C38 29.4934 29.4934 38 19 38C8.50659 38 0 29.4934 0 19C0 8.50659 8.50659 0 19 0C29.4934 0 38 8.50659 38 19Z" fill="#4958C5"/>
<path d="M26.7424 11.125H21.5503V9.66193C21.5503 8.05658 23.2166 6.85709 24.3342 6.75605C25.3097 6.66787 25.838 6.54594 27.7685 7.17589V4.54108C26.4476 4.21479 24.8626 4.26078 23.5417 4.37851C22.099 4.45979 18.8273 5.98386 18.8273 9.51969V11.125H16.9171V13.5229H18.8273V22.5657C18.8273 22.5657 17.5877 21.3871 15.0476 21.3871C11.5118 21.3871 8.38238 24.1101 8.38238 28.0117C8.38238 31.9133 11.2883 34.7136 15.1289 34.7136C18.9695 34.7136 21.6519 31.4256 21.7332 28.0117C21.8145 24.5978 21.7332 20.7165 21.7332 20.7165V13.5229H26.7424V11.125Z" fill="white"/>
<circle cx="15.1541" cy="27.9074" r="3.9016" fill="#4958C5"/>
<path d="M46.74 20.44C46.74 19.3333 46.9667 18.3533 47.42 17.5C47.8867 16.6467 48.5133 15.9867 49.3 15.52C50.1 15.04 50.98 14.8 51.94 14.8C52.8067 14.8 53.56 14.9733 54.2 15.32C54.8533 15.6533 55.3733 16.0733 55.76 16.58L55.76 14.98L58.06 14.98L58.06 26L55.76 26L55.76 24.36C55.3733 24.88 54.8467 25.3133 54.18 25.66C53.5133 26.0067 52.7533 26.18 51.9 26.18C50.9533 26.18 50.0867 25.94 49.3 25.46C48.5133 24.9667 47.8867 24.2867 47.42 23.42C46.9667 22.54 46.74 21.5467 46.74 20.44ZM55.76 20.48C55.76 19.72 55.6 19.06 55.28 18.5C54.9733 17.94 54.5667 17.5133 54.06 17.22C53.5533 16.9267 53.0067 16.78 52.42 16.78C51.8333 16.78 51.2867 16.9267 50.78 17.22C50.2733 17.5 49.86 17.92 49.54 18.48C49.2333 19.0267 49.08 19.68 49.08 20.44C49.08 21.2 49.2333 21.8667 49.54 22.44C49.86 23.0133 50.2733 23.4533 50.78 23.76C51.3 24.0533 51.8467 24.2 52.42 24.2C53.0067 24.2 53.5533 24.0533 54.06 23.76C54.5667 23.4667 54.9733 23.04 55.28 22.48C55.6 21.9067 55.76 21.24 55.76 20.48ZM70.2347 14.98L70.2347 26L67.9547 26L67.9547 24.7C67.5947 25.1533 67.1214 25.5133 66.5347 25.78C65.9614 26.0333 65.348 26.16 64.6947 26.16C63.828 26.16 63.048 25.98 62.3547 25.62C61.6747 25.26 61.1347 24.7267 60.7347 24.02C60.348 23.3133 60.1547 22.46 60.1547 21.46L60.1547 14.98L62.4147 14.98L62.4147 21.12C62.4147 22.1067 62.6614 22.8667 63.1547 23.4C63.648 23.92 64.3214 24.18 65.1747 24.18C66.028 24.18 66.7014 23.92 67.1947 23.4C67.7014 22.8667 67.9547 22.1067 67.9547 21.12L67.9547 14.98L70.2347 14.98ZM75.103 16.84L75.103 22.94C75.103 23.3533 75.1963 23.6533 75.383 23.84C75.583 24.0133 75.9163 24.1 76.383 24.1L77.783 24.1L77.783 26L75.983 26C74.9563 26 74.1696 25.76 73.623 25.28C73.0763 24.8 72.803 24.02 72.803 22.94L72.803 16.84L71.503 16.84L71.503 14.98L72.803 14.98L72.803 12.24L75.103 12.24L75.103 14.98L77.783 14.98L77.783 16.84L75.103 16.84ZM83.8644 26.18C82.8244 26.18 81.8844 25.9467 81.0444 25.48C80.2044 25 79.5444 24.3333 79.0644 23.48C78.5844 22.6133 78.3444 21.6133 78.3444 20.48C78.3444 19.36 78.591 18.3667 79.0844 17.5C79.5777 16.6333 80.251 15.9667 81.1044 15.5C81.9577 15.0333 82.911 14.8 83.9644 14.8C85.0177 14.8 85.971 15.0333 86.8244 15.5C87.6777 15.9667 88.351 16.6333 88.8444 17.5C89.3377 18.3667 89.5844 19.36 89.5844 20.48C89.5844 21.6 89.331 22.5933 88.8244 23.46C88.3177 24.3267 87.6244 25 86.7444 25.48C85.8777 25.9467 84.9177 26.18 83.8644 26.18ZM83.8644 24.2C84.451 24.2 84.9977 24.06 85.5044 23.78C86.0244 23.5 86.4444 23.08 86.7644 22.52C87.0844 21.96 87.2444 21.28 87.2444 20.48C87.2444 19.68 87.091 19.0067 86.7844 18.46C86.4777 17.9 86.071 17.48 85.5644 17.2C85.0577 16.92 84.511 16.78 83.9244 16.78C83.3377 16.78 82.791 16.92 82.2844 17.2C81.791 17.48 81.3977 17.9 81.1044 18.46C80.811 19.0067 80.6644 19.68 80.6644 20.48C80.6644 21.6667 80.9644 22.5867 81.5644 23.24C82.1777 23.88 82.9444 24.2 83.8644 24.2ZM95.6583 16.84L93.6183 16.84L93.6183 26L91.3183 26L91.3183 16.84L90.0183 16.84L90.0183 14.98L91.3183 14.98L91.3183 14.2C91.3183 12.9333 91.6516 12.0133 92.3183 11.44C92.9983 10.8533 94.0583 10.56 95.4983 10.56L95.4983 12.46C94.8049 12.46 94.3183 12.5933 94.0383 12.86C93.7583 13.1133 93.6183 13.56 93.6183 14.2L93.6183 14.98L95.6583 14.98L95.6583 16.84ZM96.1189 20.44C96.1189 19.3333 96.3456 18.3533 96.7989 17.5C97.2656 16.6467 97.8922 15.9867 98.6789 15.52C99.4789 15.04 100.359 14.8 101.319 14.8C102.186 14.8 102.939 14.9733 103.579 15.32C104.232 15.6533 104.752 16.0733 105.139 16.58L105.139 14.98L107.439 14.98L107.439 26L105.139 26L105.139 24.36C104.752 24.88 104.226 25.3133 103.559 25.66C102.892 26.0067 102.132 26.18 101.279 26.18C100.332 26.18 99.4656 25.94 98.6789 25.46C97.8922 24.9667 97.2656 24.2867 96.7989 23.42C96.3456 22.54 96.1189 21.5467 96.1189 20.44ZM105.139 20.48C105.139 19.72 104.979 19.06 104.659 18.5C104.352 17.94 103.946 17.5133 103.439 17.22C102.932 16.9267 102.386 16.78 101.799 16.78C101.212 16.78 100.666 16.9267 100.159 17.22C99.6522 17.5 99.2389 17.92 98.9189 18.48C98.6122 19.0267 98.4589 19.68 98.4589 20.44C98.4589 21.2 98.6122 21.8667 98.9189 22.44C99.2389 23.0133 99.6522 23.4533 100.159 23.76C100.679 24.0533 101.226 24.2 101.799 24.2C102.386 24.2 102.932 24.0533 103.439 23.76C103.946 23.4667 104.352 23.04 104.659 22.48C104.979 21.9067 105.139 21.24 105.139 20.48ZM111.914 16.58C112.247 16.02 112.687 15.5867 113.234 15.28C113.794 14.96 114.454 14.8 115.214 14.8L115.214 17.16L114.634 17.16C113.74 17.16 113.06 17.3867 112.594 17.84C112.14 18.2933 111.914 19.08 111.914 20.2L111.914 26L109.634 26L109.634 14.98L111.914 14.98L111.914 16.58ZM129.849 14.8C130.716 14.8 131.489 14.98 132.169 15.34C132.863 15.7 133.403 16.2333 133.789 16.94C134.189 17.6467 134.389 18.5 134.389 19.5L134.389 26L132.129 26L132.129 19.84C132.129 18.8533 131.883 18.1 131.389 17.58C130.896 17.0467 130.223 16.78 129.369 16.78C128.516 16.78 127.836 17.0467 127.329 17.58C126.836 18.1 126.589 18.8533 126.589 19.84L126.589 26L124.329 26L124.329 19.84C124.329 18.8533 124.083 18.1 123.589 17.58C123.096 17.0467 122.423 16.78 121.569 16.78C120.716 16.78 120.036 17.0467 119.529 17.58C119.036 18.1 118.789 18.8533 118.789 19.84L118.789 26L116.509 26L116.509 14.98L118.789 14.98L118.789 16.24C119.163 15.7867 119.636 15.4333 120.209 15.18C120.783 14.9267 121.396 14.8 122.049 14.8C122.929 14.8 123.716 14.9867 124.409 15.36C125.103 15.7333 125.636 16.2733 126.009 16.98C126.343 16.3133 126.863 15.7867 127.569 15.4C128.276 15 129.036 14.8 129.849 14.8Z" fill="#4958C5"/>
</svg>
