<svg width="415" height="696" viewBox="0 0 415 696" fill="none" xmlns="http://www.w3.org/2000/svg">
<path d="M294.279 695.131H266.678C255.005 695.131 245.089 686.659 243.254 675.143L229.551 588.553C229.317 587.031 229.161 585.43 229.239 583.869C230.488 555.682 253.717 533.195 282.216 533.195H308.45C322.699 533.195 333.708 545.688 331.952 559.82L317.741 674.362C316.336 686.23 306.225 695.131 294.279 695.131Z" fill="url(#paint0_linear)"/>
<path d="M369.625 314.73V435.284C369.625 534.132 292.093 614.826 194.494 619.862C191.293 620.019 188.053 620.097 184.813 620.097C82.7245 620.097 -9.15527e-05 537.372 -9.15527e-05 435.284V314.73C-9.15527e-05 212.642 82.7245 129.918 184.813 129.918C188.053 129.918 191.293 129.996 194.494 130.152C241.693 132.612 284.168 152.756 315.477 184.027C348.934 217.483 369.625 263.667 369.625 314.73Z" fill="#BEB6FF"/>
<path d="M282.255 303.487V446.528C282.255 517.696 247.705 580.745 194.494 619.862C191.293 620.019 188.053 620.097 184.813 620.097C168.026 620.097 151.746 617.871 136.248 613.655C85.2622 599.796 42.9826 564.661 19.676 518.321C7.10535 493.336 3.05176e-05 465.149 3.05176e-05 435.284V314.73C3.05176e-05 212.642 82.7246 129.918 184.813 129.918C188.053 129.918 191.293 129.996 194.494 130.152C203.278 136.633 211.594 143.738 219.285 151.468C258.207 190.351 282.255 244.108 282.255 303.487Z" fill="url(#paint1_linear)"/>
<path opacity="0.76" d="M156.04 581.76C156.04 591.559 152.058 600.46 145.616 606.902C142.884 609.634 139.721 611.938 136.208 613.656C85.2222 599.797 42.9426 564.661 19.6361 518.321H92.6008C127.658 518.321 156.04 546.742 156.04 581.76Z" fill="url(#paint2_linear)"/>
<path d="M369.077 316.799V399.367C369.077 470.965 311.181 529.368 238.295 533.038C235.913 533.155 233.493 533.194 231.072 533.194C154.828 533.194 93.0682 473.269 93.0682 399.367V316.799C93.0682 242.858 154.868 182.972 231.072 182.972C233.493 182.972 235.913 183.05 238.295 183.128C273.547 184.924 305.247 199.485 328.671 222.167C353.617 246.372 369.077 279.828 369.077 316.799Z" fill="url(#paint3_linear)"/>
<path d="M95.4124 695.131H65.3132C54.6164 695.131 45.6373 687.05 44.5051 676.392L31.7391 556.346C30.4118 543.97 40.1327 533.195 52.5472 533.195H82.2952C110.716 533.195 133.905 555.526 135.272 583.595C135.35 585.313 135.155 587.07 134.803 588.788L115.908 678.5C113.878 688.182 105.328 695.131 95.4124 695.131Z" fill="url(#paint4_linear)"/>
<path d="M111.419 297.124C111.419 243.913 166.738 200.774 235.096 200.774C303.415 200.774 358.773 243.913 358.773 297.124C358.773 350.334 312.511 304.736 244.192 304.736C175.873 304.736 111.419 350.334 111.419 297.124Z" fill="url(#paint5_linear)"/>
<path d="M186.024 122.618C185.79 122.618 185.556 122.618 185.282 122.579C182.667 122.15 180.91 119.729 181.3 117.114L185.556 90.4498C185.907 88.1074 187.898 86.4286 190.28 86.4286H201.445L175.679 67.2993C173.883 65.933 173.258 63.4735 174.234 61.3654C175.249 59.3353 177.553 58.2423 179.778 58.8279L219.676 69.5637L182.823 37.2C181.339 35.9117 180.793 33.8035 181.496 31.9296C182.198 30.0558 183.994 28.8065 185.946 28.8065H208.238L194.691 7.33487C193.324 5.10962 193.988 2.14262 196.213 0.7372C198.439 -0.668218 201.406 -0.00452937 202.811 2.22072L220.925 31.0318C221.862 32.5153 221.94 34.3892 221.082 35.9117C220.262 37.3952 218.661 38.3711 216.904 38.3711H198.673L241.382 75.849C243.022 77.2934 243.49 79.714 242.436 81.6659C241.421 83.6179 239.118 84.6329 237.01 84.0473L201.484 74.5217L218.7 87.3266C220.34 88.5368 221.043 90.723 220.379 92.675C219.754 94.6269 217.919 95.9543 215.85 95.9543H194.34L190.709 118.558C190.358 120.94 188.367 122.618 186.024 122.618Z" fill="white"/>
<path d="M170.212 107.511H208.431V136.166H170.212V107.511Z" fill="url(#paint6_linear)"/>
<path d="M188.327 276.435H186.843C182.158 276.435 178.332 272.609 178.332 267.924V252.543C178.332 247.858 182.158 244.032 186.843 244.032H188.327C193.011 244.032 196.837 247.858 196.837 252.543V267.924C196.837 272.609 193.011 276.435 188.327 276.435Z" fill="white"/>
<path d="M297.168 276.435H295.684C291 276.435 287.174 272.609 287.174 267.924V252.543C287.174 247.858 291 244.032 295.684 244.032H297.168C301.852 244.032 305.678 247.858 305.678 252.543V267.924C305.678 272.609 301.852 276.435 297.168 276.435Z" fill="white"/>
<path d="M227.444 351.547L214.522 352.367C201.287 353.226 188.717 356.7 177.317 362.283C165.918 367.904 155.65 375.673 147.101 385.043C138.512 394.451 131.563 405.499 126.8 417.68C121.999 429.86 119.383 443.211 119.383 457.188C119.383 458.281 119.383 459.374 119.422 460.467C119.461 461.56 119.5 462.614 119.578 463.707C119.656 464.8 119.734 465.854 119.812 466.908C119.929 467.962 120.007 469.056 120.164 470.11C121.647 482.563 125.239 494.353 130.548 505.089C135.857 515.825 142.884 525.467 151.278 533.627C159.671 541.786 169.353 548.501 180.05 553.381C190.708 558.261 202.342 561.267 214.522 562.047L227.444 562.867C215.146 562.086 203.435 559.041 192.699 554.161C181.963 549.243 172.164 542.489 163.732 534.251C155.299 526.014 148.194 516.293 142.846 505.479C137.497 494.665 133.866 482.797 132.383 470.227C132.266 469.173 132.149 468.08 132.032 467.026C131.914 465.932 131.836 464.878 131.758 463.785C131.68 462.692 131.641 461.599 131.602 460.506C131.563 459.413 131.563 458.32 131.563 457.227C131.563 443.133 134.218 429.704 139.059 417.406C143.86 405.109 150.849 393.983 159.515 384.496C168.182 375.01 178.489 367.202 189.966 361.541C201.444 355.919 214.092 352.406 227.444 351.547Z" fill="#B56600"/>
<path d="M162.169 503.761C166.386 510.983 171.578 517.542 177.59 523.164C183.563 528.824 190.356 533.587 197.734 537.296C205.113 540.966 213.077 543.581 221.431 544.948C222.837 545.221 224.203 545.494 225.647 545.689C227.053 545.924 228.497 546.08 229.903 546.236C231.347 546.392 232.791 546.47 234.236 546.548C235.68 546.626 237.164 546.665 238.608 546.665C250.398 546.626 261.642 544.089 271.831 539.599C282.02 535.11 291.194 528.59 298.885 520.587C306.576 512.584 312.783 503.058 317.078 492.479C321.372 481.899 323.753 470.304 323.753 458.124C323.753 451.604 323.051 445.241 321.762 439.151C325.393 435.754 328.907 432.202 332.264 428.493C332.303 428.688 332.381 428.923 332.459 429.118C333.669 433.607 334.567 438.214 335.192 442.899C335.817 447.583 336.129 452.385 336.129 457.265C336.129 471.827 333.279 485.686 328.165 498.296C323.051 510.905 315.594 522.305 306.42 531.869C297.207 541.473 286.275 549.242 274.056 554.629C261.876 560.017 248.446 563.062 234.314 563.101C221.236 563.179 208.743 560.681 197.227 556.113C185.71 551.545 175.169 544.87 166.112 536.515C157.016 528.161 149.364 518.167 143.626 507.001C138.394 496.812 134.725 485.608 132.929 473.779C139.37 476.394 146.007 478.659 152.761 480.533C154.791 488.848 157.992 496.617 162.169 503.761Z" fill="#FFDD00"/>
<path d="M317.077 492.438C312.783 503.018 306.575 512.543 298.885 520.546C291.194 528.55 282.02 535.069 271.83 539.559C261.641 544.087 250.398 546.586 238.608 546.625C237.124 546.625 235.68 546.586 234.235 546.508C232.791 546.43 231.346 546.313 229.902 546.195C228.458 546.039 227.052 545.883 225.647 545.649C224.241 545.415 222.836 545.18 221.431 544.907C222.524 545.063 223.617 545.219 224.71 545.376C225.803 545.493 226.896 545.61 228.028 545.688C229.121 545.766 230.253 545.844 231.386 545.883C232.518 545.922 233.65 545.961 234.782 545.922C246.416 545.883 257.503 543.385 267.575 538.934C277.647 534.484 286.704 528.081 294.278 520.156C301.852 512.27 308.02 502.862 312.236 492.438C316.492 482.015 318.834 470.576 318.834 458.552C318.834 455.507 318.678 452.501 318.404 449.534C318.17 447.348 317.858 445.2 317.506 443.053C318.99 441.765 320.434 440.438 321.879 439.11C323.167 445.24 323.87 451.564 323.87 458.083C323.753 470.303 321.371 481.897 317.077 492.438Z" fill="#B56600"/>
<path d="M316.999 440.789C316.413 437.939 315.711 435.089 314.891 432.356C314.032 429.585 313.095 426.891 312.002 424.275C308.801 416.506 304.545 409.323 299.431 402.921C294.317 396.518 288.305 390.858 281.629 386.173C274.954 381.488 267.575 377.779 259.689 375.203C251.803 372.665 243.449 371.26 234.743 371.221C231.854 371.221 229.043 371.338 226.232 371.611C223.422 371.884 220.689 372.314 217.956 372.86C215.223 373.407 212.569 374.11 209.953 374.929C207.337 375.749 204.761 376.686 202.262 377.779C205.034 376.452 207.884 375.281 210.773 374.227C213.701 373.212 216.668 372.353 219.713 371.65C222.758 370.947 225.842 370.44 229.004 370.05C232.166 369.698 235.368 369.503 238.608 369.542C250.398 369.581 261.641 372.119 271.83 376.608C282.02 381.098 291.194 387.617 298.885 395.62C306.575 403.623 312.783 413.149 317.077 423.729C319.068 428.648 320.63 433.762 321.762 439.071C320.318 440.399 318.873 441.726 317.39 443.014C317.272 442.312 317.155 441.57 316.999 440.789Z" fill="#C87800"/>
<path d="M218.308 373.137C171.578 380.749 139.956 425.293 147.646 472.648C155.376 520.003 199.491 552.171 246.26 544.559C292.99 536.946 324.612 492.402 316.921 445.047C309.191 397.731 265.038 365.524 218.308 373.137Z" fill="#FFF1A1"/>
<path d="M197.695 537.296C190.317 533.587 183.563 528.824 177.551 523.164C171.578 517.503 166.347 510.983 162.13 503.761C157.953 496.656 154.791 488.848 152.722 480.572C167.869 484.749 301.15 457.226 317.39 443.055C317.78 445.202 318.093 447.349 318.288 449.535C318.6 452.502 318.717 455.508 318.717 458.553C318.717 470.577 316.375 482.016 312.12 492.44C307.864 502.863 301.735 512.272 294.162 520.158C286.549 528.083 277.531 534.485 267.459 538.935C257.386 543.386 246.299 545.885 234.666 545.924C233.533 545.924 232.401 545.924 231.269 545.884C230.137 545.845 229.044 545.767 227.912 545.689C226.818 545.611 225.686 545.494 224.593 545.377C223.5 545.26 222.407 545.104 221.314 544.908C213.038 543.581 205.074 540.966 197.695 537.296Z" fill="#FAC500"/>
<path d="M194.417 359.51C206.675 354.201 220.183 351.273 234.276 351.351C243.645 351.39 252.741 352.757 261.369 355.255C269.997 357.754 278.117 361.384 285.652 365.952C293.186 370.558 300.096 376.102 306.225 382.466C312.355 388.829 317.703 395.973 322.115 403.781C324.34 407.724 326.331 411.784 328.049 416C329.688 420.021 331.094 424.199 332.265 428.454C328.908 432.163 325.394 435.715 321.763 439.112C320.631 433.802 319.07 428.649 317.079 423.769C312.784 413.19 306.577 403.664 298.886 395.661C291.195 387.658 282.021 381.138 271.832 376.649C261.642 372.12 250.399 369.622 238.609 369.583C235.369 369.583 232.168 369.739 229.006 370.09C225.843 370.441 222.759 370.988 219.714 371.691C216.669 372.393 213.702 373.252 210.774 374.267C207.846 375.282 205.035 376.493 202.263 377.82C199.999 378.796 197.774 379.889 195.588 381.06C195.393 373.916 192.543 367.474 187.975 362.633C190.083 361.501 192.231 360.447 194.417 359.51Z" fill="#FFEE7A"/>
<path d="M139.683 415.844C141.83 410.651 144.328 405.693 147.217 400.97C151.668 405.693 157.719 408.856 164.512 409.636C159.983 416.585 156.353 424.237 153.893 432.397C151.395 440.673 150.028 449.457 150.028 458.592C150.028 460.466 150.067 462.301 150.184 464.135C150.301 465.97 150.458 467.805 150.692 469.601C150.926 471.397 151.199 473.193 151.512 474.949C151.824 476.706 152.214 478.463 152.644 480.181C152.683 480.298 152.722 480.415 152.761 480.571C145.968 478.697 139.331 476.433 132.929 473.817C132.734 472.646 132.578 471.475 132.421 470.304C132.304 469.25 132.187 468.157 132.07 467.102C131.953 466.048 131.875 464.955 131.797 463.862C131.719 462.769 131.68 461.676 131.641 460.583C131.602 459.49 131.602 458.397 131.602 457.304C131.562 442.547 134.451 428.571 139.683 415.844Z" fill="#FFEE7A"/>
<path d="M147.219 400.97C151.357 394.139 156.237 387.775 161.781 382.114C169.433 374.268 178.256 367.67 187.976 362.595C192.544 367.436 195.394 373.877 195.589 381.021C192.7 382.583 189.889 384.301 187.196 386.175C186.532 386.643 185.907 387.072 185.283 387.541C184.072 388.439 182.901 389.337 181.769 390.313C181.574 390.469 181.379 390.625 181.223 390.781C181.145 390.859 181.066 390.937 180.988 390.976C174.742 396.286 169.237 402.454 164.709 409.364C164.67 409.442 164.592 409.52 164.553 409.598C157.721 408.895 151.67 405.694 147.219 400.97Z" fill="#FFFFB7"/>
<path d="M153.893 432.398C156.391 424.121 160.061 416.391 164.668 409.403C169.235 402.493 174.74 396.286 180.947 391.016C181.025 390.938 181.103 390.859 181.181 390.82C181.377 390.664 181.572 390.508 181.728 390.352C182.86 389.415 184.031 388.478 185.241 387.58C185.866 387.112 186.53 386.643 187.154 386.214C191.878 382.895 196.914 380.085 202.224 377.82C204.722 376.766 207.299 375.79 209.914 374.97C212.53 374.151 215.185 373.448 217.917 372.901C220.65 372.355 223.383 371.925 226.194 371.652C229.005 371.379 231.815 371.223 234.704 371.262C243.41 371.301 251.765 372.706 259.65 375.244C267.536 377.781 274.915 381.529 281.591 386.214C288.266 390.899 294.278 396.559 299.393 402.962C304.507 409.364 308.762 416.547 311.963 424.316C313.056 426.932 314.032 429.665 314.852 432.398C315.711 435.169 316.414 437.98 316.96 440.83C317.116 441.572 317.234 442.353 317.351 443.094C303.726 455.001 288.266 464.839 271.44 472.179L271.362 472.803L270.504 472.569C267.615 473.818 264.687 474.99 261.759 476.083C261.993 475.809 249.813 479.713 241.38 481.899C241.302 482.017 241.224 482.095 241.146 482.212C241.107 482.251 241.107 482.29 241.068 482.329C237.32 483.227 233.494 483.969 229.668 484.593C223.032 485.881 216.161 486.779 209.602 486.897C208.899 486.897 208.275 486.896 207.689 486.857C205.23 486.975 202.77 487.014 200.272 487.014C183.797 487.014 167.869 484.788 152.761 480.611C152.722 480.494 152.683 480.377 152.644 480.221C152.214 478.503 151.824 476.746 151.511 474.99C151.199 473.233 150.926 471.437 150.692 469.641C150.457 467.845 150.301 466.01 150.184 464.176C150.067 462.341 150.028 460.506 150.028 458.632C150.028 449.458 151.355 440.674 153.893 432.398Z" fill="#FAD351"/>
<path d="M144.953 495.015C144.953 495.015 133.983 521.484 117.743 534.133C108.53 541.355 96.935 542.878 85.5355 540.028C76.8297 537.842 68.2019 533.157 60.7454 526.481C43.4509 511.022 44.9734 469.796 52.4299 431.693C59.8474 393.552 81.4362 390.078 83.4272 392.069C87.136 395.777 91.4695 416.937 98.1842 437.198C101.581 447.504 105.602 457.577 110.404 464.994C124.731 486.973 144.953 495.015 144.953 495.015Z" fill="url(#paint7_linear)"/>
<path d="M131.64 492.751C116.961 491.424 97.1289 534.953 107.162 545.689C117.234 556.464 150.574 524.998 151.433 504.737C151.433 504.737 142.454 493.727 131.64 492.751Z" fill="url(#paint8_linear)"/>
<path d="M130.665 498.373C130.665 498.373 117.626 503.721 115.4 520.274C113.175 536.827 128.83 555.097 153.737 565.013C178.644 574.968 201.912 563.647 209.876 554.199C209.876 554.199 209.212 543.19 187.272 527.535C172.359 516.877 151.434 504.736 151.434 504.736C151.434 504.736 140.659 498.295 130.665 498.373Z" fill="url(#paint9_linear)"/>
<path d="M115.206 523.474C115.206 523.474 134.061 539.636 161.74 545.687C189.419 551.739 189.185 530.072 189.185 530.072C189.185 530.072 179.191 518.516 168.572 511.372C157.993 504.267 131.954 496.186 131.954 496.186C131.954 496.186 113.371 502.393 115.206 523.474Z" fill="url(#paint10_linear)"/>
<path opacity="0.5" d="M124.691 545.415C124.691 545.415 134.607 528.003 136.13 518.321C136.13 518.321 135.505 540.496 131.757 552.286L124.691 545.415Z" fill="url(#paint11_linear)"/>
<path opacity="0.5" d="M144.446 512.426C144.446 512.426 150.732 529.603 164.083 539.402C177.435 549.201 192.035 538.543 192.035 538.543L189.615 529.876L144.446 512.426Z" fill="url(#paint12_linear)"/>
<path d="M167.596 526.363C167.596 526.363 171.735 514.846 179.464 512.777C187.194 510.708 191.567 515.276 191.567 515.276C191.567 515.276 196.876 524.177 191.45 529.174C185.984 534.171 170.759 529.564 167.596 526.363Z" fill="url(#paint13_linear)"/>
<path d="M133.085 497.944C134.1 484.944 185.632 506.454 190.668 513.716C192.893 516.956 195.275 525.896 191.41 529.175C187.545 532.455 169.548 527.926 162.755 524.295C155.962 520.665 132.421 506.493 133.085 497.944Z" fill="url(#paint14_linear)"/>
<path d="M311.574 495.64C311.574 495.64 326.682 519.22 345.616 527.887C356.391 532.806 368.883 531.595 380.673 526.052C389.652 521.835 398.241 515.16 405.307 506.766C421.704 487.364 414.755 446.919 401.872 410.963C389.028 375.008 365.604 376.648 363.691 379.107C360.217 383.636 358.343 405.654 353.853 427.282C351.55 438.291 348.622 449.222 344.445 457.694C332.069 482.874 311.574 495.64 311.574 495.64Z" fill="url(#paint15_linear)"/>
<path d="M328.984 480.377C343.194 476.473 370.366 515.824 362.402 528.2C354.399 540.575 316.023 515.473 311.612 495.68C311.612 495.641 318.522 483.226 328.984 480.377Z" fill="url(#paint16_linear)"/>
<path d="M330.937 485.724C330.937 485.724 344.718 488.691 349.793 504.58C354.868 520.469 342.687 541.199 319.927 555.37C297.167 569.541 272.26 562.514 262.774 554.628C262.774 554.628 261.485 543.697 280.341 524.373C293.146 511.255 311.612 495.64 311.612 495.64C311.612 495.64 321.099 487.402 330.937 485.724Z" fill="url(#paint17_linear)"/>
<path d="M350.145 505.635C350.145 505.635 335.544 525.74 310.013 538.038C284.481 550.335 279.679 529.215 279.679 529.215C279.679 529.215 286.706 515.629 295.373 506.26C304.04 496.89 327.463 482.992 327.463 482.992C327.463 482.992 347.022 484.71 350.145 505.635Z" fill="url(#paint18_linear)"/>
<path opacity="0.5" d="M345.108 530.971C345.108 530.971 332.304 515.589 329.063 506.298C329.063 506.298 333.592 528.004 339.331 538.935L345.108 530.971Z" fill="url(#paint19_linear)"/>
<path opacity="0.5" d="M319.849 501.965C319.849 501.965 316.687 520.001 305.248 531.986C293.81 543.971 277.57 536.046 277.57 536.046L278.428 527.067L319.849 501.965Z" fill="url(#paint20_linear)"/>
<path d="M299.51 519.766C299.51 519.766 293.381 509.186 285.417 508.484C277.453 507.82 273.939 513.09 273.939 513.09C273.939 513.09 270.269 522.772 276.516 526.754C282.762 530.697 296.972 523.475 299.51 519.766Z" fill="url(#paint21_linear)"/>
<path d="M328.478 485.724C325.159 473.114 278.234 503.37 274.564 511.412C272.925 515.003 272.183 524.217 276.555 526.754C280.928 529.292 297.832 521.679 303.922 516.916C309.934 512.114 330.625 494.039 328.478 485.724Z" fill="url(#paint22_linear)"/>
<defs>
<linearGradient id="paint0_linear" x1="229.271" y1="614.165" x2="332.186" y2="614.165" gradientUnits="userSpaceOnUse">
<stop stop-color="#768CFF"/>
<stop offset="0.1973" stop-color="#7F94FF"/>
<stop offset="0.519" stop-color="#97A9FF"/>
<stop offset="0.9228" stop-color="#BFCCFF"/>
<stop offset="1" stop-color="#C7D3FF"/>
</linearGradient>
<linearGradient id="paint1_linear" x1="-0.00151738" y1="375.004" x2="282.275" y2="375.004" gradientUnits="userSpaceOnUse">
<stop stop-color="white"/>
<stop offset="0.2773" stop-color="#F1ECFF"/>
<stop offset="0.8363" stop-color="#CDBBFF"/>
<stop offset="1" stop-color="#C2ACFF"/>
</linearGradient>
<linearGradient id="paint2_linear" x1="19.6642" y1="565.992" x2="156.056" y2="565.992" gradientUnits="userSpaceOnUse">
<stop stop-color="#C2ACFF"/>
<stop offset="0.4687" stop-color="#C5C0FF"/>
<stop offset="1" stop-color="#C7D3FF"/>
</linearGradient>
<linearGradient id="paint3_linear" x1="93.0468" y1="358.074" x2="369.091" y2="358.074" gradientUnits="userSpaceOnUse">
<stop stop-color="#C2ACFF"/>
<stop offset="0.4687" stop-color="#C5C0FF"/>
<stop offset="1" stop-color="#C7D3FF"/>
</linearGradient>
<linearGradient id="paint4_linear" x1="31.6302" y1="614.165" x2="135.31" y2="614.165" gradientUnits="userSpaceOnUse">
<stop stop-color="#C2ACFF"/>
<stop offset="0.4687" stop-color="#C5C0FF"/>
<stop offset="1" stop-color="#C7D3FF"/>
</linearGradient>
<linearGradient id="paint5_linear" x1="111.412" y1="261.841" x2="358.784" y2="261.841" gradientUnits="userSpaceOnUse">
<stop stop-color="#000784"/>
<stop offset="0.154" stop-color="#050A89"/>
<stop offset="0.3368" stop-color="#131397"/>
<stop offset="0.5342" stop-color="#2B21AD"/>
<stop offset="0.742" stop-color="#4D35CD"/>
<stop offset="0.956" stop-color="#774FF6"/>
<stop offset="1" stop-color="#8155FF"/>
</linearGradient>
<linearGradient id="paint6_linear" x1="170.207" y1="121.848" x2="208.428" y2="121.848" gradientUnits="userSpaceOnUse">
<stop stop-color="#0665BD"/>
<stop offset="1" stop-color="#1A1F77"/>
</linearGradient>
<linearGradient id="paint7_linear" x1="60.3113" y1="527.668" x2="125.76" y2="417.092" gradientUnits="userSpaceOnUse">
<stop stop-color="#768CFF"/>
<stop offset="0.1973" stop-color="#7F94FF"/>
<stop offset="0.519" stop-color="#97A9FF"/>
<stop offset="0.9228" stop-color="#BFCCFF"/>
<stop offset="1" stop-color="#C7D3FF"/>
</linearGradient>
<linearGradient id="paint8_linear" x1="119.308" y1="551.036" x2="136.263" y2="494.495" gradientUnits="userSpaceOnUse">
<stop stop-color="#768CFF"/>
<stop offset="0.1973" stop-color="#7F94FF"/>
<stop offset="0.519" stop-color="#97A9FF"/>
<stop offset="0.9228" stop-color="#BFCCFF"/>
<stop offset="1" stop-color="#C7D3FF"/>
</linearGradient>
<linearGradient id="paint9_linear" x1="147.745" y1="563.162" x2="173.528" y2="517.897" gradientUnits="userSpaceOnUse">
<stop stop-color="#768CFF"/>
<stop offset="0.1973" stop-color="#7F94FF"/>
<stop offset="0.519" stop-color="#97A9FF"/>
<stop offset="0.9228" stop-color="#BFCCFF"/>
<stop offset="1" stop-color="#C7D3FF"/>
</linearGradient>
<linearGradient id="paint10_linear" x1="147.621" y1="542.514" x2="158.864" y2="505.018" gradientUnits="userSpaceOnUse">
<stop stop-color="#768CFF"/>
<stop offset="0.1973" stop-color="#7F94FF"/>
<stop offset="0.519" stop-color="#97A9FF"/>
<stop offset="0.9228" stop-color="#BFCCFF"/>
<stop offset="1" stop-color="#C7D3FF"/>
</linearGradient>
<linearGradient id="paint11_linear" x1="128.163" y1="551.428" x2="140.806" y2="520.916" gradientUnits="userSpaceOnUse">
<stop stop-color="#8DA4E5"/>
<stop offset="1" stop-color="#755CBB"/>
</linearGradient>
<linearGradient id="paint12_linear" x1="141.842" y1="521.141" x2="191.713" y2="541.806" gradientUnits="userSpaceOnUse">
<stop stop-color="#755CBB"/>
<stop offset="1" stop-color="#CCEDFF"/>
</linearGradient>
<linearGradient id="paint13_linear" x1="179.67" y1="532.088" x2="185.389" y2="513.013" gradientUnits="userSpaceOnUse">
<stop stop-color="#53D8FF"/>
<stop offset="1" stop-color="#3840F7"/>
</linearGradient>
<linearGradient id="paint14_linear" x1="152.391" y1="522.335" x2="178.791" y2="499.181" gradientUnits="userSpaceOnUse">
<stop stop-color="#768CFF"/>
<stop offset="0.1973" stop-color="#7F94FF"/>
<stop offset="0.519" stop-color="#97A9FF"/>
<stop offset="0.9228" stop-color="#BFCCFF"/>
<stop offset="1" stop-color="#C7D3FF"/>
</linearGradient>
<linearGradient id="paint15_linear" x1="405.086" y1="507.554" x2="324.468" y2="410.821" gradientUnits="userSpaceOnUse">
<stop stop-color="#768CFF"/>
<stop offset="0.1973" stop-color="#7F94FF"/>
<stop offset="0.519" stop-color="#97A9FF"/>
<stop offset="0.9228" stop-color="#BFCCFF"/>
<stop offset="1" stop-color="#C7D3FF"/>
</linearGradient>
<linearGradient id="paint16_linear" x1="351.685" y1="533.649" x2="325.039" y2="480.973" gradientUnits="userSpaceOnUse">
<stop stop-color="#768CFF"/>
<stop offset="0.1973" stop-color="#7F94FF"/>
<stop offset="0.519" stop-color="#97A9FF"/>
<stop offset="0.9228" stop-color="#BFCCFF"/>
<stop offset="1" stop-color="#C7D3FF"/>
</linearGradient>
<linearGradient id="paint17_linear" x1="325.828" y1="550.591" x2="292.475" y2="510.57" gradientUnits="userSpaceOnUse">
<stop stop-color="#768CFF"/>
<stop offset="0.1973" stop-color="#7F94FF"/>
<stop offset="0.519" stop-color="#97A9FF"/>
<stop offset="0.9228" stop-color="#BFCCFF"/>
<stop offset="1" stop-color="#C7D3FF"/>
</linearGradient>
<linearGradient id="paint18_linear" x1="323.153" y1="529.764" x2="303.521" y2="495.896" gradientUnits="userSpaceOnUse">
<stop stop-color="#768CFF"/>
<stop offset="0.1973" stop-color="#7F94FF"/>
<stop offset="0.519" stop-color="#97A9FF"/>
<stop offset="0.9228" stop-color="#BFCCFF"/>
<stop offset="1" stop-color="#C7D3FF"/>
</linearGradient>
<linearGradient id="paint19_linear" x1="343.039" y1="535.593" x2="325.22" y2="507.782" gradientUnits="userSpaceOnUse">
<stop stop-color="#8DA4E5"/>
<stop offset="1" stop-color="#755CBB"/>
</linearGradient>
<linearGradient id="paint20_linear" x1="324.24" y1="508.187" x2="278.785" y2="537.312" gradientUnits="userSpaceOnUse">
<stop stop-color="#755CBB"/>
<stop offset="1" stop-color="#CCEDFF"/>
</linearGradient>
<linearGradient id="paint21_linear" x1="288.929" y1="525.624" x2="279.94" y2="507.854" gradientUnits="userSpaceOnUse">
<stop stop-color="#53D8FF"/>
<stop offset="1" stop-color="#3840F7"/>
</linearGradient>
<linearGradient id="paint22_linear" x1="313.464" y1="512.603" x2="283.398" y2="494.459" gradientUnits="userSpaceOnUse">
<stop stop-color="#768CFF"/>
<stop offset="0.1973" stop-color="#7F94FF"/>
<stop offset="0.519" stop-color="#97A9FF"/>
<stop offset="0.9228" stop-color="#BFCCFF"/>
<stop offset="1" stop-color="#C7D3FF"/>
</linearGradient>
</defs>
</svg>

